# xmcd CD database file
#
# Track frame offsets:
#	150
#	13776
#	27827
#	39585
#	52246
#	64823
#	79005
#	92627
#	103990
#	117547
#	130790
#	142113
#	154042
#	167520
#	179955
#	191707
#	202750
#	213461
#	224957
#	238421
#
# Disc length: 3371 seconds
#
# Revision: 0
# Processed by: cddbd v1.5.2PL0 Copyright (c) Steve Scherf et al.
# Submitted via: CDex 1.70beta2
#
DISCID=3a0d2914
DTITLE=Sonny Stitt - Bebop Story 1950-54 CD 059
DYEAR=2008
DGENRE=Jazz
TTITLE0=Bye Bye
TTITLE1=Let It Be
TTITLE2=Blues Up And Down
TTITLE3=You Can Depend On Me
TTITLE4=You Can Depend On Me
TTITLE5=A Touch Of The Blues
TTITLE6=Chabootie
TTITLE7=Who Put The Sleeping Pill In Rip VanWinkles's Coffee
TTITLE8=Gravy
TTITLE9=Easy Glide
TTITLE10=I Wanna Be Loved
TTITLE11=I Can't Give You Anything But Love
TTITLE12=P.S. I Love You
TTITLE13=This Can't Be Love
TTITLE14=Cool Mambo
TTITLE15=Sonny Sounds
TTITLE16=Blue Mambo
TTITLE17=Stitt's it
TTITLE18=Later
TTITLE19=Ain't Misbehavin'
EXTD=YEAR: 2008
EXTT0=
EXTT1=
EXTT2=
EXTT3=
EXTT4=
EXTT5=
EXTT6=
EXTT7=
EXTT8=
EXTT9=
EXTT10=
EXTT11=
EXTT12=
EXTT13=
EXTT14=
EXTT15=
EXTT16=
EXTT17=
EXTT18=
EXTT19=
PLAYORDER=
